{"title":"Alice.in.Wonderland.2010.SWESUB.DVDRip.XviD.AC3.(5.1).-Zen_Bud","uid":5706312,"size":1473564974,"categoryP":"video","categoryS":"movies","magnet":"?xt=urn:btih:33848ac8e0fd20a10d31257a821ae612e535c267&amp;dn=Alice.in.Wonderland.2010.SWESUB.DVDRip.XviD.AC3.%285.1%29.-Zen_Bud&amp;tr=udp%3A%2F%2Ftracker.openbittorrent.com%3A80&amp;tr=udp%3A%2F%2Fopen.demonii.com%3A1337&amp;tr=udp%3A%2F%2Ftracker.coppersurfer.tk%3A6969&amp;tr=udp%3A%2F%2Fexodus.desync.com%3A6969","seeders":0,"leechers":1,"uploader":"Brian838","files":1,"time":1279699369,"description":"General\nComplete name                    : Alice.in.Wonderland.2010.avi\nFormat                           : AVI\nFile size                        : 1.37 GiB\nDuration                         : 1h 48mn\nOverall bit rate                 : 1 809 Kbps\n\nVideo\n\nFormat                           : MPEG-4 Visual\nCodec ID/Hint                    : XviD\nDuration                         : 1h 48mn\nBit rate                         : 1 351 Kbps\nWidth                            : 720 pixels\nHeight                           : 480 pixels\nDisplay aspect ratio             : 16:9\nStream size                      : 1.02 GiB (75%)\nWriting library                  : XviD 1.1.2 (UTC 2006-11-01)\n\nAudio\n\nFormat                           : AC-3\nDuration                         : 1h 48mn\nBit rate                         : 448 Kbps\nChannel(s)                       : 6 channels\nChannel positions                : Front: L C R, Side: L R, LFE\nSampling rate                    : 48.0 KHz\nStream size                      : 348 MiB (25%)\nAlignment                        : Aligned on interleaves","torrent":{"xt":"urn:btih:33848ac8e0fd20a10d31257a821ae612e535c267","amp;dn":"Alice.in.Wonderland.2010.SWESUB.DVDRip.XviD.AC3.%285.1%29.-Zen_Bud","amp;tr":["udp%3A%2F%2Ftracker.openbittorrent.com%3A80","udp%3A%2F%2Fopen.demonii.com%3A1337","udp%3A%2F%2Ftracker.coppersurfer.tk%3A6969","udp%3A%2F%2Fexodus.desync.com%3A6969"],"infoHash":"33848ac8e0fd20a10d31257a821ae612e535c267","infoHashBuffer":{"type":"Buffer","data":[51,132,138,200,224,253,32,161,13,49,37,122,130,26,230,18,229,53,194,103]},"announce":[],"urlList":[]}}